<svg width="66" height="66" viewBox="0 0 66 66" fill="none" xmlns="http://www.w3.org/2000/svg">
<rect width="66" height="66" rx="22" fill="white"/>
<path d="M52.25 0H13.75C6.15725 0 0 6.15725 0 13.75V52.25C0 59.8427 6.15725 66 13.75 66H52.25C59.8455 66 66 59.8427 66 52.25V13.75C66 6.15725 59.8455 0 52.25 0ZM22 52.25H13.75V22H22V52.25ZM17.875 18.513C15.2185 18.513 13.0625 16.3405 13.0625 13.662C13.0625 10.9835 15.2185 8.811 17.875 8.811C20.5315 8.811 22.6875 10.9835 22.6875 13.662C22.6875 16.3405 20.5343 18.513 17.875 18.513ZM55 52.25H46.75V36.839C46.75 27.577 35.75 28.2783 35.75 36.839V52.25H27.5V22H35.75V26.8538C39.589 19.7423 55 19.217 55 33.6628V52.25Z" fill="#0A66C2"/>
</svg>
